<?xml version="1.0" encoding="UTF-8"?>
<svg version="1.1" viewBox="0 0 2048 2048" width="38" height="38" xmlns="http://www.w3.org/2000/svg">
<path transform="translate(1030,264)" d="m0 0h26l13 4 10 6 10 10 6 12 3 16-1 14-4 13 45-12 6-1h13l13 4 10 7 7 9 4 9 2 9 1 14v44l-13 12-8 7-13 13-1-85-2-8h-14l-48 13-87 24-80 22-66 18-41 11-12 2h-28l-18-4-15-6-14-8-16-16 4-2 64-16 212-51 46-11 10-4 5-4 4-8v-12l-3-6-6-4-4-1h-14l-17 3-192 49-65 17-45 11-20 5-12 5-7 8-5 14-3 18v481l4 15 6 11 8 10 9 8 17 12 16 9 20 8 16 4 14 2h27l25-3 71-13 17-3v86l7 1 27-27 8-7 24-24 7-8 16-16 7-8 8-8 14-11 16-9 17-6 25-5 49-14 10-5 5-6 2-5 1-7v-62l-1-112v-110l29-44 4-4 2 215v122l-3 14-5 12-9 11-10 7-10 5-15 5-43 12-25 5-12 5-14 9-14 13-7 8-12 12-7 8-50 50-8 7-7 7-12 5h-14l-15-5-8-6-6-7-4-11-1-51-49 9-23 3-24 1-23-2-23-5-22-8-20-10-15-10-13-10-12-11-7-8-9-14-6-14-4-17-1-9v-468l2-22 5-21 7-16 6-8 9-9 15-8 19-6 55-13 100-26 106-27 64-16z" fill="#1F618B"/>
<path transform="translate(1239,412)" d="m0 0h7l10 4 2 2-8 18-14 22-16 26-15 24-14 22-16 25-29 43-12 18-27 40-38 56-34 50-21 31-9 10-10 9-8 4-14 3-11-1-13-5-9-7-8-8-12-17-14-20-13-19-11-16-26-38-16-23-10-14-6-10-1-3v-13l7-14 11-12 9-8 16-8 12-3 9 2 8 7 13 16 12 16 12 15 10 13 28 36 4 5h2l9-11 11-12 9-11 13-14 7-8 12-14 11-12 9-11 13-14 9-11 13-14 7-8 12-14 12-13 7-8 9-10 7-8 10-11 7-8 11-12 7-8 12-12 8-7 13-11 14-11 7-4z" fill="#369831"/>
<path transform="translate(174,1185)" d="m0 0h112l14 2 17 5 14 8 10 9 7 10 5 12 2 10v16l-3 13-6 12-10 11-12 8-8 3 13 5 11 8 8 8 8 14 4 13 1 15-2 14-5 13-7 10-5 6-11 8-12 6-13 4-12 2h-120zm50 40v61h53l11-3 9-6 6-9 1-4v-17l-5-10-5-5-9-5-10-2zm0 99v66h55l10-2 10-5 5-5 5-8 1-4v-17l-4-9-7-8-9-5-6-2-8-1z" fill="#1E618A"/>
<path transform="translate(725,1185)" d="m0 0h98l22 3 21 6 19 9 14 10 11 10 10 13 8 14 6 15 4 16 2 15v24l-3 20-5 17-8 16-7 11-12 13-9 8-18 11-17 7-19 5-15 2h-102zm50 42v161h46l17-3 13-5 10-6 10-9 8-11 6-13 4-18v-30l-4-18-5-12-8-11-5-6-11-8-12-6-15-4-8-1z" fill="#1E618A"/>
<path transform="translate(1061,1182)" d="m0 0h32l20 4 19 7 13 7 11 8 10 9 8 8 10 14 8 15 7 21 3 18v28l-3 18-7 21-9 17-10 13-15 15-13 9-17 9-18 6-15 3-11 1h-15l-21-3-17-5-16-7-14-9-13-11-7-7-11-15-7-12-6-15-4-16-2-14v-24l3-19 7-21 9-17 9-12 11-12 14-11 16-9 14-6 15-4zm8 44-16 3-13 5-13 9-7 7-9 14-5 12-3 12-1 8v22l3 17 5 13 7 12 9 10 7 6 15 8 16 4h26l15-4 14-7 10-8 8-10 6-10 5-13 3-16v-26l-3-16-5-12-6-11-11-12-8-6-14-7-12-3-8-1z" fill="#1E608A"/>
<path transform="translate(1324,1182)" d="m0 0h27l18 3 17 5 16 8 11 7 15 13 11 14 9 16 4 10v4h-56l-7-11-9-10-11-7-14-5-5-1h-26l-15 4-15 8-10 9-9 13-6 14-3 12-1 8v22l3 17 5 13 6 11 11 12 10 7 10 5 11 3 6 1h20l16-4 12-6 10-9 7-9 3-6h57l-1 6-9 19-8 11-9 10-11 10-18 11-15 6-15 4-13 2h-31l-17-3-21-7-15-8-12-9-10-9-9-10-9-14-7-14-5-15-3-15-1-9v-24l3-19 5-17 8-17 8-12 12-14 13-11 13-8 12-6 15-5 14-3z" fill="#1E618A"/>
<path transform="translate(485,1182)" d="m0 0h27l18 3 17 5 16 8 11 7 15 13 11 14 9 16 4 10v4h-56l-7-11-9-10-11-7-14-5-5-1h-26l-15 4-15 8-10 9-9 13-6 14-3 12-1 8v22l3 17 5 13 6 11 11 12 10 7 10 5 11 3 6 1h20l16-4 12-6 10-9 7-9 3-6h57l-1 6-9 19-8 11-9 10-11 10-18 11-15 6-15 4-13 2h-31l-17-3-21-7-15-8-12-9-10-9-9-10-9-14-7-14-5-15-3-15-1-9v-24l3-19 5-17 8-17 8-12 12-14 13-11 13-8 12-6 15-5 14-3z" fill="#1E618A"/>
<path transform="translate(1540,1182)" d="m0 0h32l16 3 16 6 10 6 11 9 8 10 6 12 4 14 1 9-1 1h-54l-2-9-6-10-9-6-10-3h-19l-10 4-7 6-3 6-1 5v12l4 8 1 3 4 2 10 6 15 6 40 13 18 8 10 7 8 7 9 13 4 11 2 17-2 18-5 14-6 10-9 10-8 7-12 7-17 6-21 3h-15l-21-3-16-5-14-7-10-8-9-9-7-11-5-15-1-5v-11h52l2 7 4 10 4 5v2l12 6 9 2h14l12-3 9-6 6-9 1-4v-13l-3-8-4-5-11-7-15-6-36-11-20-8-10-6-10-9-7-8-5-10-3-11-1-9v-10l3-17 5-12 9-12 10-9 14-8 18-6z" fill="#1E618A"/>
<path transform="translate(1080,433)" d="m0 0h13l5 3 3 3 2 7v10l-3 5-6 4-36 10-170 44-47 12-9-1-5-3-4-8-1-5v-7l3-6 8-4 29-8 190-49z" fill="#1E618A"/>
<path transform="translate(1098,829)" d="m0 0h7l7 3 4 4 2 6v11l-3 5-4 3-29 8-212 55-17 4-8-2-5-5-4-13 1-7 5-5 16-5 49-13 163-42z" fill="#1E618A"/>
<path transform="translate(1080,1512)" d="m0 0h11l14 19h3l10-14 4-5h11v50h-9v-35l-5 5-11 15h-4l-10-14-4-5-1 34h-9z" fill="#369831"/>
<path transform="translate(445,1512)" d="m0 0h11l14 19h3l10-14 4-5h11v50h-9v-35l-5 5-11 15h-4l-10-14-4-5-1 34h-9z" fill="#369831"/>
<path transform="translate(804,1512)" d="m0 0h25l9 3 5 4 5 9 1 4v10l-4 10-5 5-4 3-7 2h-25zm9 9v31l1 1h14l6-3 4-4 2-7-1-8-3-5-5-4-3-1z" fill="#369831"/>
<path transform="translate(707,1512)" d="m0 0h25l9 3 5 4 5 9 1 4v10l-4 10-5 5-4 3-7 2h-25zm9 9v31l1 1h14l6-3 4-4 2-7-1-8-3-5-5-4-3-1z" fill="#369831"/>
<path transform="translate(1528,1510)" d="m0 0 11 1 10 5 6 9 2 7v10l-3 9-7 8-6 3-5 1h-10l-9-3-7-6-4-8-1-4v-10l4-11 5-5 6-4zm-2 9-7 4-4 6-1 4v7l3 8 6 5 2 1h12l6-4 4-6 1-4v-7l-3-8-6-5-3-1z" fill="#369831"/>
<path transform="translate(893,1510)" d="m0 0 11 1 10 5 6 9 2 7v10l-3 9-7 8-6 3-5 1h-10l-9-3-7-6-4-8-1-4v-10l4-11 5-5 6-4zm-2 9-7 4-4 6-1 4v7l3 8 6 5 2 1h12l6-4 4-6 1-4v-7l-3-8-6-5-3-1z" fill="#369831"/>
<path transform="translate(393,1510)" d="m0 0 11 1 10 5 6 9 2 7v10l-3 9-7 8-6 3-5 1h-10l-9-3-7-6-4-8-1-4v-10l4-11 5-5 6-4zm-2 9-7 4-4 6-1 4v7l3 8 6 5 2 1h12l6-4 4-6 1-4v-7l-3-8-6-5-3-1z" fill="#369831"/>
<path transform="translate(1581,1512)" d="m0 0h8l14 17 9 12 2 1v-30h9v50h-6l-11-13-10-13-5-6-1 32h-9z" fill="#369831"/>
<path transform="translate(1221,1512)" d="m0 0h8l14 17 9 12 2 1v-30h9v50h-6l-11-13-10-13-5-6-1 32h-9z" fill="#369831"/>
<path transform="translate(1158,1512)" d="m0 0h37v9h-28v11h27v9h-27v12h28v9h-37z" fill="#369831"/>
<path transform="translate(647,1512)" d="m0 0h37v9h-28v11h27v9h-27v12h28v9h-37z" fill="#369831"/>
<path transform="translate(1366,1512)" d="m0 0h10l8 16 15 33v1h-11l-3-9-27 1-4 8h-10l3-9 18-40zm5 11-6 12-3 9h18l-3-9-5-12z" fill="#369831"/>
<path transform="translate(541,1512)" d="m0 0h10l8 16 15 33v1h-11l-3-9-27 1-4 8h-10l3-9 18-40zm5 11-6 12-3 9h18l-3-9-5-12z" fill="#369831"/>
<path transform="translate(193,1512)" d="m0 0h10l8 16 15 33v1h-11l-3-9-27 1-4 8h-10l3-9 18-40zm5 11-6 12-3 9h18l-3-9-5-12z" fill="#369831"/>
<path transform="translate(1010,1512)" d="m0 0h9l1 33 3 6 4 2h10l5-5 1-3 1-33h9v36l-4 8-6 5-6 2h-10l-8-3-5-4-4-8z" fill="#369831"/>
<path transform="translate(243,1512)" d="m0 0h9l1 33 3 6 4 2h10l5-5 1-3 1-33h9v36l-4 8-6 5-6 2h-10l-8-3-5-4-4-8z" fill="#369831"/>
<path transform="translate(964,1511)" d="m0 0h10l8 3 6 4-5 6-4-1-5-2h-9l-8 4-3 5-1 4v7l4 8 7 4h10l9-4 5 5v3l-9 5-5 1h-10l-11-4-7-8-3-9v-10l3-8 4-6 7-5z" fill="#369831"/>
<path transform="translate(1408,1512)" d="m0 0h41v9h-16v41h-9v-41h-16z" fill="#369831"/>
<path transform="translate(1285,1512)" d="m0 0h41v9h-16v41h-9v-41h-16z" fill="#369831"/>
<path transform="translate(583,1512)" d="m0 0h41v9h-16v41h-9v-41h-16z" fill="#369831"/>
<path transform="translate(309,1512)" d="m0 0h41v9h-16v41h-9v-41h-16z" fill="#369831"/>
<path transform="translate(1472,1512)" d="m0 0h9v50h-9z" fill="#369831"/>
</svg>